<?xml version="1.0" standalone="no"?>
<!DOCTYPE svg PUBLIC "-//W3C//DTD SVG 20010904//EN"
 "http://www.w3.org/TR/2001/REC-SVG-20010904/DTD/svg10.dtd">
<svg version="1.0" xmlns="http://www.w3.org/2000/svg"
 width="945.000000pt" height="945.000000pt" viewBox="0 0 945.000000 945.000000"
 preserveAspectRatio="xMidYMid meet">

<g transform="translate(0.000000,945.000000) scale(0.100000,-0.100000)"
fill="#000000" stroke="none">
<path d="M0 4725 l0 -4725 4725 0 4725 0 0 4725 0 4725 -4725 0 -4725 0 0
-4725z m5851 3255 c215 -25 255 -32 443 -71 124 -26 168 -54 185 -116 13 -47
9 -67 -75 -370 -9 -32 -20 -74 -24 -93 -5 -19 -13 -51 -19 -70 -21 -73 -33
-116 -41 -150 -27 -115 -51 -185 -69 -204 -35 -38 -86 -47 -156 -30 -123 30
-274 51 -510 72 -151 13 -443 -12 -610 -53 -383 -94 -699 -286 -964 -586 -98
-110 -110 -126 -123 -155 -6 -13 -15 -24 -19 -24 -4 0 -11 -9 -14 -20 -3 -11
-12 -26 -18 -33 -20 -21 -127 -223 -127 -239 0 -4 504 -9 1119 -10 l1120 -3
31 -30 c37 -35 63 -91 57 -120 -10 -42 -50 -232 -57 -270 -4 -22 -13 -62 -19
-90 -6 -27 -20 -93 -31 -145 -23 -106 -46 -140 -109 -159 -28 -8 -352 -11
-1180 -11 l-1141 0 0 -245 0 -245 1100 0 1100 0 41 -41 41 -41 -4 -71 c-4 -62
-17 -133 -58 -317 -4 -19 -17 -82 -29 -140 -26 -126 -43 -158 -101 -187 l-44
-23 -909 0 -908 0 7 -22 c16 -54 153 -310 175 -328 3 -3 12 -15 18 -28 15 -27
18 -32 132 -166 100 -117 244 -243 374 -327 96 -62 126 -79 201 -117 166 -83
403 -154 605 -181 103 -13 384 -15 477 -2 37 5 108 15 157 21 50 6 104 15 120
20 17 4 57 13 90 20 33 7 88 21 123 32 107 34 175 4 200 -88 7 -27 17 -65 22
-84 6 -19 17 -71 26 -115 9 -44 20 -96 24 -115 4 -19 13 -60 20 -90 7 -30 16
-71 20 -90 4 -19 13 -60 20 -90 7 -30 16 -73 22 -95 5 -22 11 -62 14 -90 8
-81 -34 -138 -116 -158 -14 -3 -41 -10 -60 -15 -107 -31 -155 -42 -250 -60
-58 -11 -141 -25 -185 -31 -44 -6 -112 -16 -152 -21 -95 -13 -595 -13 -703 0
-201 25 -283 39 -460 82 -111 27 -268 74 -325 97 -11 5 -51 21 -90 36 -217 86
-496 246 -680 389 -21 17 -64 51 -95 74 -77 61 -354 337 -398 397 -20 28 -42
55 -48 60 -6 6 -22 26 -34 45 -13 19 -27 37 -30 40 -4 3 -27 34 -51 70 -152
221 -296 517 -391 808 l-41 122 -231 0 c-261 0 -297 8 -336 72 -20 32 -20 46
-18 351 l3 318 42 40 42 39 181 0 180 0 0 178 c0 97 3 207 6 244 l7 66 -179 4
c-199 4 -228 12 -264 71 -19 30 -20 52 -20 347 0 433 -26 403 345 410 l260 5
31 90 c16 50 38 107 47 129 9 21 17 42 17 45 0 10 50 115 112 236 28 55 56
110 62 122 6 13 14 23 19 23 4 0 7 4 7 10 0 8 66 118 87 145 5 6 28 39 52 74
139 205 403 473 656 667 234 178 613 378 875 460 25 8 59 18 75 24 139 44 367
91 560 115 123 15 651 19 766 5z"/>
</g>
</svg>
