<?xml version="1.0" standalone="no"?>
<!DOCTYPE svg PUBLIC "-//W3C//DTD SVG 20010904//EN"
 "http://www.w3.org/TR/2001/REC-SVG-20010904/DTD/svg10.dtd">
<svg version="1.0" xmlns="http://www.w3.org/2000/svg"
 width="945.000000pt" height="945.000000pt" viewBox="0 0 945.000000 945.000000"
 preserveAspectRatio="xMidYMid meet">

<g transform="translate(0.000000,945.000000) scale(0.100000,-0.100000)"
fill="#000000" stroke="none">
<path d="M0 4725 l0 -4725 4725 0 4725 0 0 4725 0 4725 -4725 0 -4725 0 0
-4725z m5102 3445 c14 -14 29 -38 32 -54 4 -16 7 -176 6 -357 0 -181 2 -339 5
-352 6 -21 15 -24 113 -35 58 -7 111 -17 117 -21 5 -5 31 -11 56 -14 47 -6
159 -39 214 -62 17 -7 46 -16 65 -20 19 -4 40 -11 45 -15 6 -4 29 -14 53 -21
23 -6 42 -16 42 -21 0 -4 5 -8 12 -8 21 0 250 -119 268 -139 3 -4 25 -20 50
-36 25 -17 50 -34 56 -40 6 -5 26 -21 45 -35 18 -14 53 -43 76 -66 39 -37 43
-46 43 -88 0 -36 -8 -62 -35 -107 -19 -33 -35 -63 -35 -66 0 -4 -29 -57 -65
-118 -36 -62 -65 -117 -65 -124 0 -6 -4 -11 -8 -11 -4 0 -13 -12 -20 -27 -7
-16 -20 -42 -30 -58 -9 -17 -32 -58 -50 -92 -28 -51 -41 -64 -76 -77 -38 -14
-47 -15 -77 -2 -19 8 -44 23 -56 33 -30 25 -57 46 -75 58 -8 6 -42 28 -74 49
-82 54 -218 133 -246 141 -12 4 -32 14 -43 21 -11 8 -25 14 -33 14 -7 0 -32 9
-55 19 -23 11 -59 22 -80 26 -20 4 -39 11 -42 15 -3 5 -24 11 -47 15 -22 4
-56 13 -74 21 -51 21 -266 34 -411 24 -116 -8 -279 -42 -293 -61 -3 -4 -24
-12 -47 -19 -24 -7 -43 -17 -43 -22 0 -4 -5 -8 -12 -8 -16 0 -84 -47 -128 -87
-19 -18 -38 -33 -41 -33 -9 0 -99 -117 -99 -129 0 -6 -5 -11 -10 -11 -6 0 -9
-3 -8 -7 3 -15 -26 -103 -34 -103 -4 0 -8 -56 -8 -125 0 -77 4 -125 10 -125 6
0 10 -8 10 -18 0 -36 59 -137 112 -192 43 -46 103 -98 183 -158 16 -13 116
-69 170 -95 48 -24 106 -51 210 -97 28 -12 63 -28 79 -36 16 -8 34 -14 40 -14
6 0 23 -6 38 -14 14 -8 43 -19 65 -26 21 -7 43 -16 48 -21 6 -4 32 -13 58 -19
26 -7 47 -15 47 -19 0 -4 22 -13 50 -20 27 -7 52 -17 56 -22 3 -5 13 -9 22 -9
9 -1 35 -9 57 -20 22 -11 44 -19 48 -20 4 0 27 -9 50 -19 24 -11 55 -23 70
-26 15 -4 27 -11 27 -16 0 -5 5 -9 11 -9 6 0 53 -20 103 -45 51 -25 98 -45
104 -45 6 0 12 -3 14 -7 2 -5 35 -24 73 -43 39 -19 72 -38 73 -42 2 -5 9 -8
16 -8 7 0 26 -10 43 -22 17 -13 41 -30 53 -38 19 -13 67 -48 105 -77 107 -82
220 -192 282 -273 46 -61 133 -225 133 -252 0 -9 4 -19 9 -22 5 -3 15 -30 21
-58 7 -29 16 -57 20 -63 5 -5 13 -46 19 -90 7 -44 17 -102 22 -130 19 -89 -10
-452 -40 -520 -5 -11 -15 -42 -22 -70 -6 -27 -16 -54 -20 -60 -5 -5 -9 -16 -9
-25 0 -8 -12 -37 -25 -65 -14 -27 -25 -55 -25 -62 0 -6 -3 -13 -7 -15 -5 -1
-19 -25 -33 -53 -40 -79 -109 -177 -183 -259 -66 -74 -220 -215 -266 -246 -13
-8 -37 -25 -54 -37 -17 -13 -34 -23 -38 -23 -4 0 -31 -16 -60 -35 -29 -19 -65
-37 -81 -40 -15 -4 -28 -10 -28 -14 0 -4 -17 -13 -37 -20 -21 -7 -47 -16 -58
-21 -37 -17 -109 -42 -157 -53 -25 -7 -49 -15 -53 -19 -4 -4 -47 -12 -96 -19
l-89 -13 0 -338 c0 -362 -5 -411 -48 -451 -23 -22 -27 -22 -337 -22 l-313 0
-26 28 c-14 15 -27 29 -28 30 -1 1 -5 171 -8 377 l-5 374 -100 13 c-55 7 -109
17 -120 22 -11 5 -38 12 -60 16 -49 8 -169 42 -210 60 -16 7 -41 16 -55 20
-14 4 -29 11 -35 15 -5 4 -31 13 -57 20 -27 7 -48 17 -48 21 0 5 -7 9 -15 9
-35 0 -359 177 -385 211 -3 3 -16 12 -29 19 -14 7 -30 17 -35 21 -6 5 -59 47
-118 93 -131 103 -140 112 -172 159 -36 52 -33 85 12 145 20 28 44 60 52 72 8
12 35 48 60 80 25 31 56 72 70 90 14 18 45 59 70 91 25 31 54 69 64 84 11 14
27 35 35 45 9 10 23 28 31 40 8 12 34 31 58 42 38 18 46 19 70 7 22 -11 119
-86 142 -109 29 -30 272 -192 315 -212 17 -7 32 -15 35 -18 3 -3 32 -18 65
-34 33 -15 71 -34 85 -41 14 -7 40 -16 58 -20 17 -3 32 -10 32 -14 0 -4 26
-14 58 -21 31 -7 62 -16 67 -20 6 -4 30 -11 55 -15 25 -4 68 -13 95 -20 137
-38 451 -35 568 5 31 11 66 20 77 20 11 0 20 4 20 9 0 5 12 12 27 16 58 14
171 91 244 165 125 126 164 231 157 419 -3 88 -8 115 -28 156 -14 28 -27 52
-30 55 -3 3 -17 23 -32 45 -39 57 -97 115 -148 150 -25 17 -50 35 -56 41 -7 5
-39 23 -73 39 -33 16 -61 33 -61 37 0 4 -5 8 -11 8 -6 0 -65 27 -132 60 -67
32 -134 62 -149 66 -16 3 -28 10 -28 15 0 5 -8 9 -17 9 -10 0 -40 12 -68 25
-27 14 -58 25 -67 25 -9 0 -19 4 -22 9 -3 5 -18 12 -33 16 -16 3 -44 14 -63
22 -19 9 -53 24 -75 33 -22 10 -51 21 -65 25 -14 4 -34 14 -45 21 -11 8 -26
14 -33 14 -8 0 -30 7 -50 16 -21 9 -55 25 -77 34 -62 27 -156 70 -201 91 -22
10 -46 19 -52 19 -7 0 -12 4 -12 9 0 5 -16 15 -35 21 -19 6 -35 15 -35 19 0 3
-12 12 -27 19 -36 16 -84 44 -100 59 -7 6 -22 15 -33 18 -11 3 -20 10 -20 14
0 4 -11 13 -25 19 -14 7 -31 16 -38 22 -7 5 -48 37 -92 71 -97 75 -185 164
-257 261 -15 20 -34 42 -41 50 -7 7 -26 36 -42 63 -16 28 -32 52 -36 55 -3 3
-12 23 -19 45 -7 22 -16 42 -20 45 -8 6 -41 111 -72 225 -17 64 -22 118 -25
270 -3 105 0 219 5 255 14 87 40 188 57 227 8 17 15 37 15 45 0 7 6 22 14 33
7 11 17 31 21 45 12 40 97 179 162 265 60 79 166 187 251 255 24 19 53 43 64
52 11 10 29 20 39 23 11 4 19 10 19 15 0 5 9 12 20 15 11 3 26 12 33 19 22 22
250 136 272 136 4 0 21 7 38 14 51 24 151 55 198 62 24 4 46 10 49 14 3 3 28
10 55 16 l50 9 5 380 c3 209 7 381 8 382 1 1 12 13 25 26 12 14 31 27 42 30
11 3 153 4 315 4 l296 -2 26 -25z"/>
</g>
</svg>
